<svg xmlns="http://www.w3.org/2000/svg" viewBox="0 0 200 200">
  <rect width="200" height="200" rx="40" fill="#0F2447"/>
  <defs>
    <linearGradient id="g1" x1="0%" y1="0%" x2="100%" y2="100%">
      <stop offset="0%" stop-color="#c9a84c"/>
      <stop offset="50%" stop-color="#e8c96d"/>
      <stop offset="100%" stop-color="#b8932a"/>
    </linearGradient>
    <linearGradient id="g2" x1="0%" y1="0%" x2="0%" y2="100%">
      <stop offset="0%" stop-color="#e8c96d"/>
      <stop offset="100%" stop-color="#c9a84c"/>
    </linearGradient>
  </defs>
  <rect x="98.5" y="52" width="3" height="96" rx="1.5" fill="url(#g2)"/>
  <polygon points="100,46 104,52 100,58 96,52" fill="url(#g1)"/>
  <rect x="36" y="90" width="110" height="2.5" fill="url(#g1)"/>
  <path d="M 36,90 C 34,89.5 33,89 33,89.2 C 33,89.5 34.5,92.5 36,92.5 Z" fill="url(#g1)"/>
  <rect x="144.5" y="88" width="3" height="8" rx="1" fill="url(#g1)"/>
  <polygon points="146,85.5 148.5,88 146,90.5 143.5,88" fill="url(#g1)"/>
  <polygon points="146,93.5 148.5,96 146,98.5 143.5,96" fill="url(#g1)"/>
  <path d="M 147.5,90 L 167,90 A 3,3 0 0 1 170,93 A 3,3 0 0 1 167,96 L 147.5,96 L 147.5,95 L 165.75,95 A 1.25,1.25 0 0 0 167,93.75 A 1.25,1.25 0 0 0 165.75,92.5 L 147.5,92.5 Z" fill="url(#g1)"/>
  <line x1="64" y1="91.25" x2="64" y2="109" stroke="#c9a84c" stroke-width="0.9" stroke-opacity="0.75" stroke-dasharray="2,1.5"/>
  <line x1="122" y1="91.25" x2="122" y2="112" stroke="#c9a84c" stroke-width="0.9" stroke-opacity="0.75" stroke-dasharray="2,1.5"/>
  <circle cx="64" cy="101" r="1.4" fill="#c9a84c" opacity="0.85"/>
  <circle cx="122" cy="102" r="1.4" fill="#c9a84c" opacity="0.85"/>
  <path d="M 50 110 Q 64 119 78 110" fill="none" stroke="url(#g1)" stroke-width="2.2" stroke-linecap="round"/>
  <circle cx="50" cy="110" r="2" fill="#e8c96d"/>
  <circle cx="78" cy="110" r="2" fill="#e8c96d"/>
  <path d="M 108 113 Q 122 122 136 113" fill="none" stroke="url(#g1)" stroke-width="2.2" stroke-linecap="round"/>
  <circle cx="108" cy="113" r="2" fill="#e8c96d"/>
  <circle cx="136" cy="113" r="2" fill="#e8c96d"/>
  <rect x="90" y="148" width="20" height="2.5" rx="1.25" fill="url(#g1)" opacity="0.9"/>
  <rect x="84" y="152" width="32" height="2" rx="1" fill="url(#g1)" opacity="0.5"/>
</svg>
